<?xml version="1.0" encoding="UTF-8" standalone="no"?>
<!DOCTYPE svg PUBLIC "-//W3C//DTD SVG 1.1//EN" "http://www.w3.org/Graphics/SVG/1.1/DTD/svg11.dtd">
<!-- Generated by Microsoft Visio, SVG Export mcp-arch-diagram.svg Page-1 -->
<svg xmlns="http://www.w3.org/2000/svg" xmlns:xlink="http://www.w3.org/1999/xlink" xmlns:ev="http://www.w3.org/2001/xml-events"
		xmlns:v="http://schemas.microsoft.com/visio/2003/SVGExtensions/" width="7.20309in" height="4.02521in"
		viewBox="0 0 518.623 289.815" xml:space="preserve" color-interpolation-filters="sRGB" class="st13">
	<v:documentProperties v:langID="1033" v:viewMarkup="false">
		<v:userDefs>
			<v:ud v:nameU="msvConvertTheme"/>
		</v:userDefs>
	</v:documentProperties>

	<style type="text/css">
	<![CDATA[
		.st1 {visibility:visible}
		.st2 {fill:#cdcdcd;fill-opacity:0.5;stroke:#cdcdcd;stroke-linecap:round;stroke-linejoin:round;stroke-opacity:0.5}
		.st3 {fill:url(#grad0-6);stroke:#404040;stroke-linecap:round;stroke-linejoin:round;stroke-width:0.25}
		.st4 {fill:#000000;font-family:Calibri;font-size:0.666664em}
		.st5 {font-size:1em}
		.st6 {fill:#cdcdcd;fill-opacity:0.5}
		.st7 {stroke:#cdcdcd;stroke-linecap:round;stroke-linejoin:round;stroke-opacity:0.5;stroke-width:0.25}
		.st8 {fill:url(#grad0-6)}
		.st9 {stroke:#404040;stroke-linecap:round;stroke-linejoin:round;stroke-width:0.25}
		.st10 {marker-end:url(#mrkr5-59);stroke:#404040;stroke-linecap:round;stroke-linejoin:round;stroke-width:1}
		.st11 {fill:#404040;fill-opacity:1;stroke:#404040;stroke-opacity:1;stroke-width:0.28409090909091}
		.st12 {fill:#ffffff;stroke:none;stroke-linecap:butt;stroke-width:7.2}
		.st13 {fill:none;fill-rule:evenodd;font-size:12px;overflow:visible;stroke-linecap:square;stroke-miterlimit:3}
	]]>
	</style>

	<defs id="Patterns_And_Gradients">
		<linearGradient id="grad0-6" x1="0" y1="0" x2="1" y2="0" gradientTransform="rotate(270 0.5 0.5)">
			<stop offset="0" stop-color="#f0f0f0" stop-opacity="1"/>
			<stop offset="1" stop-color="#ffffff" stop-opacity="1"/>
		</linearGradient>
	</defs>
	<defs id="Markers">
		<g id="lend5">
			<path d="M 2 1 L 0 0 L 1.98117 -0.993387 C 1.67173 -0.364515 1.67301 0.372641 1.98465 1.00043 " style="stroke:none"/>
		</g>
		<marker id="mrkr5-59" class="st11" v:arrowType="5" v:arrowSize="2" v:setback="6.16" refX="-6.16" orient="auto"
				markerUnits="strokeWidth" overflow="visible">
			<use xlink:href="#lend5" transform="scale(-3.52,-3.52) "/>
		</marker>
	</defs>
	<g v:mID="0" v:index="1" v:groupContext="foregroundPage">
		<title>Page-1</title>
		<v:pageProperties v:drawingScale="1" v:pageScale="1" v:drawingUnits="0" v:shadowOffsetX="9" v:shadowOffsetY="-9"/>
		<v:layer v:name="Flowchart" v:index="0"/>
		<v:layer v:name="Connector" v:index="1"/>
		<g id="shape1-1" v:mID="1" v:groupContext="shape" v:layerMember="0" transform="translate(216.188,-109.627)">
			<title>Process.2</title>
			<desc>Master Control Program (Job definition, state machine)</desc>
			<v:custProps>
				<v:cp v:nameU="Cost" v:lbl="Cost" v:type="7" v:format="@" v:langID="1033"/>
				<v:cp v:nameU="Duration" v:lbl="Duration" v:type="2" v:langID="1033"/>
				<v:cp v:nameU="Resources" v:lbl="Resources" v:langID="1033"/>
			</v:custProps>
			<v:userDefs>
				<v:ud v:nameU="visVersion" v:val="VT0(11):26"/>
				<v:ud v:nameU="msvThemeColors" v:val="VT0(36):26"/>
				<v:ud v:nameU="msvThemeEffects" v:val="VT0(16):26"/>
			</v:userDefs>
			<v:textBlock v:margins="rect(2,2,2,2)"/>
			<v:textRect cx="126" cy="271.815" width="252" height="36"/>
			<g id="shadow1-2" v:groupContext="shadow" v:shadowOffsetX="1.44" v:shadowOffsetY="-1.44" v:shadowType="1"
					transform="matrix(1,0,0,1,1.44,1.44)" class="st1">
				<rect x="0" y="253.815" width="252" height="36" class="st2"/>
			</g>
			<rect x="0" y="253.815" width="252" height="36" class="st3"/>
			<text x="86.5" y="269.42" class="st4" v:langID="1033"><v:paragraph v:horizAlign="1"/><v:tabList/>Master Control Program<v:newlineChar/><tspan
						x="76.59" dy="1.2em" class="st5">(Job definition, state machine)</tspan></text>		</g>
		<g id="shape2-9" v:mID="2" v:groupContext="shape" v:layerMember="0" transform="translate(108.188,-109.627)">
			<title>Database.20</title>
			<desc>Job Queue</desc>
			<v:custProps>
				<v:cp v:nameU="Cost" v:lbl="Cost" v:prompt="" v:type="7" v:format="@" v:sortKey="" v:invis="false" v:ask="false"
						v:langID="1033" v:cal="0"/>
				<v:cp v:nameU="ProcessNumber" v:lbl="Process Number" v:prompt="" v:type="2" v:format="" v:sortKey=""
						v:invis="false" v:ask="false" v:langID="1033" v:cal="0"/>
				<v:cp v:nameU="Owner" v:lbl="Owner" v:prompt="" v:type="0" v:format="" v:sortKey="" v:invis="false" v:ask="false"
						v:langID="1033" v:cal="0"/>
				<v:cp v:nameU="Function" v:lbl="Function" v:prompt="" v:type="0" v:format="" v:sortKey="" v:invis="false"
						v:ask="false" v:langID="1033" v:cal="0" v:val="VT4()"/>
				<v:cp v:nameU="StartDate" v:lbl="Start Date" v:prompt="" v:type="5" v:format="" v:sortKey="" v:invis="false"
						v:ask="false" v:langID="1033" v:cal="0"/>
				<v:cp v:nameU="EndDate" v:lbl="End Date" v:prompt="" v:type="5" v:format="" v:sortKey="" v:invis="false"
						v:ask="false" v:langID="1033" v:cal="0"/>
				<v:cp v:nameU="Status" v:lbl="Status" v:prompt="" v:type="4"
						v:format=";Not Started;In Progress;Completed;Deferred;Waiting on Input" v:sortKey="" v:invis="false"
						v:ask="false" v:langID="1033" v:cal="0" v:val="VT4()"/>
			</v:custProps>
			<v:userDefs>
				<v:ud v:nameU="visVersion" v:prompt="" v:val="VT0(15):26"/>
				<v:ud v:nameU="DefaultWidth" v:prompt="" v:val="VT0(0.98425196850394):24"/>
				<v:ud v:nameU="DefaultHeight" v:prompt="" v:val="VT0(0.59055118110236):24"/>
				<v:ud v:nameU="ResizeTxtHeight" v:prompt="" v:val="VT0(0.59055118110236):24"/>
				<v:ud v:nameU="msvThemeColors" v:val="VT0(36):26"/>
				<v:ud v:nameU="msvThemeEffects" v:val="VT0(16):26"/>
			</v:userDefs>
			<v:textBlock v:margins="rect(2,2,2,2)"/>
			<v:textRect cx="36" cy="271.815" width="63" height="36"/>
			<g id="shadow2-10" v:groupContext="shadow" v:shadowOffsetX="1.44" v:shadowOffsetY="-1.44" v:shadowType="1"
					transform="matrix(1,0,0,1,1.44,1.44)" class="st1">
				<path d="M4.5 253.81 L72 253.81 A38.25 38.25 0 0 1 72 289.81 L4.5 289.81 A38.25 38.25 0 0 1 4.5 253.81 Z"
						class="st6"/>
				<path d="M4.5 253.81 L72 253.81 A38.25 38.25 0 0 1 72 289.81 L4.5 289.81 A38.25 38.25 0 0 1 4.5 253.81" class="st7"/>
				<path d="M72 253.81 A38.25 38.25 -180 0 0 72 289.81" class="st7"/>
			</g>
			<path d="M4.5 253.81 L72 253.81 A38.25 38.25 0 0 1 72 289.81 L4.5 289.81 A38.25 38.25 0 0 1 4.5 253.81 Z" class="st8"/>
			<path d="M4.5 253.81 L72 253.81 A38.25 38.25 0 0 1 72 289.81 L4.5 289.81 A38.25 38.25 0 0 1 4.5 253.81" class="st9"/>
			<path d="M72 253.81 A38.25 38.25 -180 0 0 72 289.81" class="st9"/>
			<text x="18.73" y="274.21" class="st4" v:langID="1033"><v:paragraph v:horizAlign="1"/><v:tabList/>Job Queue</text>		</g>
		<g id="shape3-19" v:mID="3" v:groupContext="shape" v:layerMember="0" transform="translate(0.1875,-109.627)">
			<title>Process.3</title>
			<desc>Job Producer</desc>
			<v:custProps>
				<v:cp v:nameU="Cost" v:lbl="Cost" v:prompt="" v:type="7" v:format="@" v:sortKey="" v:invis="false" v:ask="false"
						v:langID="1033" v:cal="0"/>
				<v:cp v:nameU="ProcessNumber" v:lbl="Process Number" v:prompt="" v:type="2" v:format="" v:sortKey=""
						v:invis="false" v:ask="false" v:langID="1033" v:cal="0"/>
				<v:cp v:nameU="Owner" v:lbl="Owner" v:prompt="" v:type="0" v:format="" v:sortKey="" v:invis="false" v:ask="false"
						v:langID="1033" v:cal="0"/>
				<v:cp v:nameU="Function" v:lbl="Function" v:prompt="" v:type="0" v:format="" v:sortKey="" v:invis="false"
						v:ask="false" v:langID="1033" v:cal="0" v:val="VT4()"/>
				<v:cp v:nameU="StartDate" v:lbl="Start Date" v:prompt="" v:type="5" v:format="" v:sortKey="" v:invis="false"
						v:ask="false" v:langID="1033" v:cal="0"/>
				<v:cp v:nameU="EndDate" v:lbl="End Date" v:prompt="" v:type="5" v:format="" v:sortKey="" v:invis="false"
						v:ask="false" v:langID="1033" v:cal="0"/>
				<v:cp v:nameU="Status" v:lbl="Status" v:prompt="" v:type="4"
						v:format=";Not Started;In Progress;Completed;Deferred;Waiting on Input" v:sortKey="" v:invis="false"
						v:ask="false" v:langID="1033" v:cal="0" v:val="VT4()"/>
			</v:custProps>
			<v:userDefs>
				<v:ud v:nameU="visVersion" v:prompt="" v:val="VT0(15):26"/>
				<v:ud v:nameU="DefaultWidth" v:prompt="" v:val="VT0(0.98425196850394):24"/>
				<v:ud v:nameU="DefaultHeight" v:prompt="" v:val="VT0(0.59055118110236):24"/>
				<v:ud v:nameU="ResizeTxtHeight" v:prompt="" v:val="VT0(0.59055118110236):24"/>
				<v:ud v:nameU="msvThemeColors" v:val="VT0(36):26"/>
				<v:ud v:nameU="msvThemeEffects" v:val="VT0(16):26"/>
			</v:userDefs>
			<v:textBlock v:margins="rect(2,2,2,2)"/>
			<v:textRect cx="36" cy="271.815" width="72" height="36"/>
			<g id="shadow3-20" v:groupContext="shadow" v:shadowOffsetX="1.44" v:shadowOffsetY="-1.44" v:shadowType="1"
					transform="matrix(1,0,0,1,1.44,1.44)" class="st1">
				<rect x="0" y="253.815" width="72" height="36" class="st2"/>
			</g>
			<rect x="0" y="253.815" width="72" height="36" class="st3"/>
			<text x="14.76" y="274.21" class="st4" v:langID="1033"><v:paragraph v:horizAlign="1"/><v:tabList/>Job Producer</text>		</g>
		<g id="shape5-25" v:mID="5" v:groupContext="shape" v:layerMember="0" transform="translate(238.688,-253.627)">
			<title>Process.5</title>
			<desc>Worker 1</desc>
			<v:custProps>
				<v:cp v:nameU="Cost" v:lbl="Cost" v:prompt="" v:type="7" v:format="@" v:sortKey="" v:invis="false" v:ask="false"
						v:langID="1033" v:cal="0"/>
				<v:cp v:nameU="ProcessNumber" v:lbl="Process Number" v:prompt="" v:type="2" v:format="" v:sortKey=""
						v:invis="false" v:ask="false" v:langID="1033" v:cal="0"/>
				<v:cp v:nameU="Owner" v:lbl="Owner" v:prompt="" v:type="0" v:format="" v:sortKey="" v:invis="false" v:ask="false"
						v:langID="1033" v:cal="0"/>
				<v:cp v:nameU="Function" v:lbl="Function" v:prompt="" v:type="0" v:format="" v:sortKey="" v:invis="false"
						v:ask="false" v:langID="1033" v:cal="0" v:val="VT4()"/>
				<v:cp v:nameU="StartDate" v:lbl="Start Date" v:prompt="" v:type="5" v:format="" v:sortKey="" v:invis="false"
						v:ask="false" v:langID="1033" v:cal="0"/>
				<v:cp v:nameU="EndDate" v:lbl="End Date" v:prompt="" v:type="5" v:format="" v:sortKey="" v:invis="false"
						v:ask="false" v:langID="1033" v:cal="0"/>
				<v:cp v:nameU="Status" v:lbl="Status" v:prompt="" v:type="4"
						v:format=";Not Started;In Progress;Completed;Deferred;Waiting on Input" v:sortKey="" v:invis="false"
						v:ask="false" v:langID="1033" v:cal="0" v:val="VT4()"/>
			</v:custProps>
			<v:userDefs>
				<v:ud v:nameU="visVersion" v:prompt="" v:val="VT0(15):26"/>
				<v:ud v:nameU="DefaultWidth" v:prompt="" v:val="VT0(0.98425196850394):24"/>
				<v:ud v:nameU="DefaultHeight" v:prompt="" v:val="VT0(0.59055118110236):24"/>
				<v:ud v:nameU="ResizeTxtHeight" v:prompt="" v:val="VT0(0.59055118110236):24"/>
				<v:ud v:nameU="msvThemeColors" v:val="VT0(36):26"/>
				<v:ud v:nameU="msvThemeEffects" v:val="VT0(16):26"/>
			</v:userDefs>
			<v:textBlock v:margins="rect(2,2,2,2)"/>
			<v:textRect cx="36" cy="271.815" width="72" height="36"/>
			<g id="shadow5-26" v:groupContext="shadow" v:shadowOffsetX="1.44" v:shadowOffsetY="-1.44" v:shadowType="1"
					transform="matrix(1,0,0,1,1.44,1.44)" class="st1">
				<rect x="0" y="253.815" width="72" height="36" class="st2"/>
			</g>
			<rect x="0" y="253.815" width="72" height="36" class="st3"/>
			<text x="20.8" y="274.21" class="st4" v:langID="1033"><v:paragraph v:horizAlign="1"/><v:tabList/>Worker 1</text>		</g>
		<g id="shape6-31" v:mID="6" v:groupContext="shape" v:layerMember="0" transform="translate(216.188,-181.627)">
			<title>Database.6</title>
			<desc>Request Queue</desc>
			<v:custProps>
				<v:cp v:nameU="Cost" v:lbl="Cost" v:prompt="" v:type="7" v:format="@" v:sortKey="" v:invis="false" v:ask="false"
						v:langID="1033" v:cal="0"/>
				<v:cp v:nameU="ProcessNumber" v:lbl="Process Number" v:prompt="" v:type="2" v:format="" v:sortKey=""
						v:invis="false" v:ask="false" v:langID="1033" v:cal="0"/>
				<v:cp v:nameU="Owner" v:lbl="Owner" v:prompt="" v:type="0" v:format="" v:sortKey="" v:invis="false" v:ask="false"
						v:langID="1033" v:cal="0"/>
				<v:cp v:nameU="Function" v:lbl="Function" v:prompt="" v:type="0" v:format="" v:sortKey="" v:invis="false"
						v:ask="false" v:langID="1033" v:cal="0" v:val="VT4()"/>
				<v:cp v:nameU="StartDate" v:lbl="Start Date" v:prompt="" v:type="5" v:format="" v:sortKey="" v:invis="false"
						v:ask="false" v:langID="1033" v:cal="0"/>
				<v:cp v:nameU="EndDate" v:lbl="End Date" v:prompt="" v:type="5" v:format="" v:sortKey="" v:invis="false"
						v:ask="false" v:langID="1033" v:cal="0"/>
				<v:cp v:nameU="Status" v:lbl="Status" v:prompt="" v:type="4"
						v:format=";Not Started;In Progress;Completed;Deferred;Waiting on Input" v:sortKey="" v:invis="false"
						v:ask="false" v:langID="1033" v:cal="0" v:val="VT4()"/>
			</v:custProps>
			<v:userDefs>
				<v:ud v:nameU="visVersion" v:prompt="" v:val="VT0(15):26"/>
				<v:ud v:nameU="DefaultWidth" v:prompt="" v:val="VT0(0.98425196850394):24"/>
				<v:ud v:nameU="DefaultHeight" v:prompt="" v:val="VT0(0.59055118110236):24"/>
				<v:ud v:nameU="ResizeTxtHeight" v:prompt="" v:val="VT0(0.59055118110236):24"/>
				<v:ud v:nameU="msvThemeColors" v:val="VT0(36):26"/>
				<v:ud v:nameU="msvThemeEffects" v:val="VT0(16):26"/>
			</v:userDefs>
			<v:textBlock v:margins="rect(2,2,2,2)"/>
			<v:textRect cx="22.5" cy="271.815" width="36" height="36"/>
			<g id="shadow6-32" v:groupContext="shadow" v:shadowOffsetX="1.44" v:shadowOffsetY="-1.44" v:shadowType="1"
					transform="matrix(1,0,0,1,1.44,1.44)" class="st1">
				<path d="M4.5 253.81 L45 253.81 A38.25 38.25 0 0 1 45 289.81 L4.5 289.81 A38.25 38.25 0 0 1 4.5 253.81 Z"
						class="st6"/>
				<path d="M4.5 253.81 L45 253.81 A38.25 38.25 0 0 1 45 289.81 L4.5 289.81 A38.25 38.25 0 0 1 4.5 253.81" class="st7"/>
				<path d="M45 253.81 A38.25 38.25 -180 0 0 45 289.81" class="st7"/>
			</g>
			<path d="M4.5 253.81 L45 253.81 A38.25 38.25 0 0 1 45 289.81 L4.5 289.81 A38.25 38.25 0 0 1 4.5 253.81 Z" class="st8"/>
			<path d="M4.5 253.81 L45 253.81 A38.25 38.25 0 0 1 45 289.81 L4.5 289.81 A38.25 38.25 0 0 1 4.5 253.81" class="st9"/>
			<path d="M45 253.81 A38.25 38.25 -180 0 0 45 289.81" class="st9"/>
			<text x="9.24" y="269.42" class="st4" v:langID="1033"><v:paragraph v:horizAlign="1"/><v:tabList/>Request <tspan
						x="11.63" dy="1.2em" class="st5">Queue</tspan></text>		</g>
		<g id="shape7-42" v:mID="7" v:groupContext="shape" v:layerMember="0" transform="translate(279.188,-181.627)">
			<title>Database.7</title>
			<desc>Response Queue</desc>
			<v:custProps>
				<v:cp v:nameU="Cost" v:lbl="Cost" v:prompt="" v:type="7" v:format="@" v:sortKey="" v:invis="false" v:ask="false"
						v:langID="1033" v:cal="0"/>
				<v:cp v:nameU="ProcessNumber" v:lbl="Process Number" v:prompt="" v:type="2" v:format="" v:sortKey=""
						v:invis="false" v:ask="false" v:langID="1033" v:cal="0"/>
				<v:cp v:nameU="Owner" v:lbl="Owner" v:prompt="" v:type="0" v:format="" v:sortKey="" v:invis="false" v:ask="false"
						v:langID="1033" v:cal="0"/>
				<v:cp v:nameU="Function" v:lbl="Function" v:prompt="" v:type="0" v:format="" v:sortKey="" v:invis="false"
						v:ask="false" v:langID="1033" v:cal="0" v:val="VT4()"/>
				<v:cp v:nameU="StartDate" v:lbl="Start Date" v:prompt="" v:type="5" v:format="" v:sortKey="" v:invis="false"
						v:ask="false" v:langID="1033" v:cal="0"/>
				<v:cp v:nameU="EndDate" v:lbl="End Date" v:prompt="" v:type="5" v:format="" v:sortKey="" v:invis="false"
						v:ask="false" v:langID="1033" v:cal="0"/>
				<v:cp v:nameU="Status" v:lbl="Status" v:prompt="" v:type="4"
						v:format=";Not Started;In Progress;Completed;Deferred;Waiting on Input" v:sortKey="" v:invis="false"
						v:ask="false" v:langID="1033" v:cal="0" v:val="VT4()"/>
			</v:custProps>
			<v:userDefs>
				<v:ud v:nameU="visVersion" v:prompt="" v:val="VT0(15):26"/>
				<v:ud v:nameU="DefaultWidth" v:prompt="" v:val="VT0(0.98425196850394):24"/>
				<v:ud v:nameU="DefaultHeight" v:prompt="" v:val="VT0(0.59055118110236):24"/>
				<v:ud v:nameU="ResizeTxtHeight" v:prompt="" v:val="VT0(0.59055118110236):24"/>
				<v:ud v:nameU="msvThemeColors" v:val="VT0(36):26"/>
				<v:ud v:nameU="msvThemeEffects" v:val="VT0(16):26"/>
			</v:userDefs>
			<v:textBlock v:margins="rect(2,2,2,2)"/>
			<v:textRect cx="22.5" cy="271.815" width="36" height="36"/>
			<g id="shadow7-43" v:groupContext="shadow" v:shadowOffsetX="1.44" v:shadowOffsetY="-1.44" v:shadowType="1"
					transform="matrix(1,0,0,1,1.44,1.44)" class="st1">
				<path d="M4.5 253.81 L45 253.81 A38.25 38.25 0 0 1 45 289.81 L4.5 289.81 A38.25 38.25 0 0 1 4.5 253.81 Z"
						class="st6"/>
				<path d="M4.5 253.81 L45 253.81 A38.25 38.25 0 0 1 45 289.81 L4.5 289.81 A38.25 38.25 0 0 1 4.5 253.81" class="st7"/>
				<path d="M45 253.81 A38.25 38.25 -180 0 0 45 289.81" class="st7"/>
			</g>
			<path d="M4.5 253.81 L45 253.81 A38.25 38.25 0 0 1 45 289.81 L4.5 289.81 A38.25 38.25 0 0 1 4.5 253.81 Z" class="st8"/>
			<path d="M4.5 253.81 L45 253.81 A38.25 38.25 0 0 1 45 289.81 L4.5 289.81 A38.25 38.25 0 0 1 4.5 253.81" class="st9"/>
			<path d="M45 253.81 A38.25 38.25 -180 0 0 45 289.81" class="st9"/>
			<text x="6.91" y="269.42" class="st4" v:langID="1033"><v:paragraph v:horizAlign="1"/><v:tabList/>Response <tspan
						x="11.63" dy="1.2em" class="st5">Queue</tspan></text>		</g>
		<g id="shape11-53" v:mID="11" v:groupContext="shape" v:layerMember="1" transform="translate(72.1875,-118.627)">
			<title>Dynamic connector</title>
			<v:userDefs>
				<v:ud v:nameU="msvThemeColors" v:val="VT0(36):26"/>
				<v:ud v:nameU="msvThemeEffects" v:val="VT0(16):26"/>
			</v:userDefs>
			<path d="M0 280.81 L29.84 280.81" class="st10"/>
		</g>
		<g id="shape13-60" v:mID="13" v:groupContext="shape" v:layerMember="1" transform="translate(180.188,-118.627)">
			<title>Dynamic connector.13</title>
			<v:userDefs>
				<v:ud v:nameU="msvThemeColors" v:val="VT0(36):26"/>
				<v:ud v:nameU="msvThemeEffects" v:val="VT0(16):26"/>
			</v:userDefs>
			<path d="M0 280.81 L29.84 280.81" class="st10"/>
		</g>
		<g id="shape16-66" v:mID="16" v:groupContext="shape" v:layerMember="1" transform="translate(229.688,-217.627)">
			<title>Dynamic connector.16</title>
			<v:userDefs>
				<v:ud v:nameU="msvThemeColors" v:val="VT0(36):26"/>
				<v:ud v:nameU="msvThemeEffects" v:val="VT0(16):26"/>
			</v:userDefs>
			<path d="M9 289.81 L9 271.81 L-9 271.81 L-9 235.81 L2.84 235.81" class="st10"/>
		</g>
		<g id="shape17-72" v:mID="17" v:groupContext="shape" v:layerMember="1" transform="translate(315.188,-271.627)">
			<title>Dynamic connector.17</title>
			<v:userDefs>
				<v:ud v:nameU="msvThemeColors" v:val="VT0(36):26"/>
				<v:ud v:nameU="msvThemeEffects" v:val="VT0(16):26"/>
			</v:userDefs>
			<path d="M-4.5 289.81 L13.5 289.81 L13.5 325.81 L-13.5 325.81 L-13.5 337.65" class="st10"/>
		</g>
		<g id="shape18-78" v:mID="18" v:groupContext="shape" v:layerMember="1" transform="translate(292.688,-181.627)">
			<title>Dynamic connector.18</title>
			<v:userDefs>
				<v:ud v:nameU="msvThemeColors" v:val="VT0(36):26"/>
				<v:ud v:nameU="msvThemeEffects" v:val="VT0(16):26"/>
			</v:userDefs>
			<path d="M9 289.81 L9 315.15" class="st10"/>
		</g>
		<g id="shape20-84" v:mID="20" v:groupContext="shape" v:layerMember="1" transform="translate(229.688,-150.127)">
			<title>Dynamic connector.20</title>
			<v:userDefs>
				<v:ud v:nameU="msvThemeColors" v:val="VT0(36):26"/>
				<v:ud v:nameU="msvThemeEffects" v:val="VT0(16):26"/>
			</v:userDefs>
			<path d="M9 289.81 L9 264.47" class="st10"/>
		</g>
		<g id="shape21-90" v:mID="21" v:groupContext="shape" v:layerMember="0" transform="translate(382.688,-253.627)">
			<title>Process.21.21</title>
			<desc>Worker 2</desc>
			<v:custProps>
				<v:cp v:nameU="Cost" v:lbl="Cost" v:prompt="" v:type="7" v:format="@" v:sortKey="" v:invis="false" v:ask="false"
						v:langID="1033" v:cal="0"/>
				<v:cp v:nameU="ProcessNumber" v:lbl="Process Number" v:prompt="" v:type="2" v:format="" v:sortKey=""
						v:invis="false" v:ask="false" v:langID="1033" v:cal="0"/>
				<v:cp v:nameU="Owner" v:lbl="Owner" v:prompt="" v:type="0" v:format="" v:sortKey="" v:invis="false" v:ask="false"
						v:langID="1033" v:cal="0"/>
				<v:cp v:nameU="Function" v:lbl="Function" v:prompt="" v:type="0" v:format="" v:sortKey="" v:invis="false"
						v:ask="false" v:langID="1033" v:cal="0" v:val="VT4()"/>
				<v:cp v:nameU="StartDate" v:lbl="Start Date" v:prompt="" v:type="5" v:format="" v:sortKey="" v:invis="false"
						v:ask="false" v:langID="1033" v:cal="0"/>
				<v:cp v:nameU="EndDate" v:lbl="End Date" v:prompt="" v:type="5" v:format="" v:sortKey="" v:invis="false"
						v:ask="false" v:langID="1033" v:cal="0"/>
				<v:cp v:nameU="Status" v:lbl="Status" v:prompt="" v:type="4"
						v:format=";Not Started;In Progress;Completed;Deferred;Waiting on Input" v:sortKey="" v:invis="false"
						v:ask="false" v:langID="1033" v:cal="0" v:val="VT4()"/>
			</v:custProps>
			<v:userDefs>
				<v:ud v:nameU="visVersion" v:prompt="" v:val="VT0(15):26"/>
				<v:ud v:nameU="DefaultWidth" v:prompt="" v:val="VT0(0.98425196850394):24"/>
				<v:ud v:nameU="DefaultHeight" v:prompt="" v:val="VT0(0.59055118110236):24"/>
				<v:ud v:nameU="ResizeTxtHeight" v:prompt="" v:val="VT0(0.59055118110236):24"/>
				<v:ud v:nameU="msvThemeColors" v:val="VT0(36):26"/>
				<v:ud v:nameU="msvThemeEffects" v:val="VT0(16):26"/>
			</v:userDefs>
			<v:textBlock v:margins="rect(2,2,2,2)"/>
			<v:textRect cx="36" cy="271.815" width="72" height="36"/>
			<g id="shadow21-91" v:groupContext="shadow" v:shadowOffsetX="1.44" v:shadowOffsetY="-1.44" v:shadowType="1"
					transform="matrix(1,0,0,1,1.44,1.44)" class="st1">
				<rect x="0" y="253.815" width="72" height="36" class="st2"/>
			</g>
			<rect x="0" y="253.815" width="72" height="36" class="st3"/>
			<text x="20.8" y="274.21" class="st4" v:langID="1033"><v:paragraph v:horizAlign="1"/><v:tabList/>Worker 2</text>		</g>
		<g id="shape22-96" v:mID="22" v:groupContext="shape" v:layerMember="0" transform="translate(360.188,-181.627)">
			<title>Database.22</title>
			<desc>Request Queue</desc>
			<v:custProps>
				<v:cp v:nameU="Cost" v:lbl="Cost" v:prompt="" v:type="7" v:format="@" v:sortKey="" v:invis="false" v:ask="false"
						v:langID="1033" v:cal="0"/>
				<v:cp v:nameU="ProcessNumber" v:lbl="Process Number" v:prompt="" v:type="2" v:format="" v:sortKey=""
						v:invis="false" v:ask="false" v:langID="1033" v:cal="0"/>
				<v:cp v:nameU="Owner" v:lbl="Owner" v:prompt="" v:type="0" v:format="" v:sortKey="" v:invis="false" v:ask="false"
						v:langID="1033" v:cal="0"/>
				<v:cp v:nameU="Function" v:lbl="Function" v:prompt="" v:type="0" v:format="" v:sortKey="" v:invis="false"
						v:ask="false" v:langID="1033" v:cal="0" v:val="VT4()"/>
				<v:cp v:nameU="StartDate" v:lbl="Start Date" v:prompt="" v:type="5" v:format="" v:sortKey="" v:invis="false"
						v:ask="false" v:langID="1033" v:cal="0"/>
				<v:cp v:nameU="EndDate" v:lbl="End Date" v:prompt="" v:type="5" v:format="" v:sortKey="" v:invis="false"
						v:ask="false" v:langID="1033" v:cal="0"/>
				<v:cp v:nameU="Status" v:lbl="Status" v:prompt="" v:type="4"
						v:format=";Not Started;In Progress;Completed;Deferred;Waiting on Input" v:sortKey="" v:invis="false"
						v:ask="false" v:langID="1033" v:cal="0" v:val="VT4()"/>
			</v:custProps>
			<v:userDefs>
				<v:ud v:nameU="visVersion" v:prompt="" v:val="VT0(15):26"/>
				<v:ud v:nameU="DefaultWidth" v:prompt="" v:val="VT0(0.98425196850394):24"/>
				<v:ud v:nameU="DefaultHeight" v:prompt="" v:val="VT0(0.59055118110236):24"/>
				<v:ud v:nameU="ResizeTxtHeight" v:prompt="" v:val="VT0(0.59055118110236):24"/>
				<v:ud v:nameU="msvThemeColors" v:val="VT0(36):26"/>
				<v:ud v:nameU="msvThemeEffects" v:val="VT0(16):26"/>
			</v:userDefs>
			<v:textBlock v:margins="rect(2,2,2,2)"/>
			<v:textRect cx="22.5" cy="271.815" width="36" height="36"/>
			<g id="shadow22-97" v:groupContext="shadow" v:shadowOffsetX="1.44" v:shadowOffsetY="-1.44" v:shadowType="1"
					transform="matrix(1,0,0,1,1.44,1.44)" class="st1">
				<path d="M4.5 253.81 L45 253.81 A38.25 38.25 0 0 1 45 289.81 L4.5 289.81 A38.25 38.25 0 0 1 4.5 253.81 Z"
						class="st6"/>
				<path d="M4.5 253.81 L45 253.81 A38.25 38.25 0 0 1 45 289.81 L4.5 289.81 A38.25 38.25 0 0 1 4.5 253.81" class="st7"/>
				<path d="M45 253.81 A38.25 38.25 -180 0 0 45 289.81" class="st7"/>
			</g>
			<path d="M4.5 253.81 L45 253.81 A38.25 38.25 0 0 1 45 289.81 L4.5 289.81 A38.25 38.25 0 0 1 4.5 253.81 Z" class="st8"/>
			<path d="M4.5 253.81 L45 253.81 A38.25 38.25 0 0 1 45 289.81 L4.5 289.81 A38.25 38.25 0 0 1 4.5 253.81" class="st9"/>
			<path d="M45 253.81 A38.25 38.25 -180 0 0 45 289.81" class="st9"/>
			<text x="9.24" y="269.42" class="st4" v:langID="1033"><v:paragraph v:horizAlign="1"/><v:tabList/>Request <tspan
						x="11.63" dy="1.2em" class="st5">Queue</tspan></text>		</g>
		<g id="shape23-107" v:mID="23" v:groupContext="shape" v:layerMember="0" transform="translate(423.188,-181.627)">
			<title>Database.23</title>
			<desc>Response Queue</desc>
			<v:custProps>
				<v:cp v:nameU="Cost" v:lbl="Cost" v:prompt="" v:type="7" v:format="@" v:sortKey="" v:invis="false" v:ask="false"
						v:langID="1033" v:cal="0"/>
				<v:cp v:nameU="ProcessNumber" v:lbl="Process Number" v:prompt="" v:type="2" v:format="" v:sortKey=""
						v:invis="false" v:ask="false" v:langID="1033" v:cal="0"/>
				<v:cp v:nameU="Owner" v:lbl="Owner" v:prompt="" v:type="0" v:format="" v:sortKey="" v:invis="false" v:ask="false"
						v:langID="1033" v:cal="0"/>
				<v:cp v:nameU="Function" v:lbl="Function" v:prompt="" v:type="0" v:format="" v:sortKey="" v:invis="false"
						v:ask="false" v:langID="1033" v:cal="0" v:val="VT4()"/>
				<v:cp v:nameU="StartDate" v:lbl="Start Date" v:prompt="" v:type="5" v:format="" v:sortKey="" v:invis="false"
						v:ask="false" v:langID="1033" v:cal="0"/>
				<v:cp v:nameU="EndDate" v:lbl="End Date" v:prompt="" v:type="5" v:format="" v:sortKey="" v:invis="false"
						v:ask="false" v:langID="1033" v:cal="0"/>
				<v:cp v:nameU="Status" v:lbl="Status" v:prompt="" v:type="4"
						v:format=";Not Started;In Progress;Completed;Deferred;Waiting on Input" v:sortKey="" v:invis="false"
						v:ask="false" v:langID="1033" v:cal="0" v:val="VT4()"/>
			</v:custProps>
			<v:userDefs>
				<v:ud v:nameU="visVersion" v:prompt="" v:val="VT0(15):26"/>
				<v:ud v:nameU="DefaultWidth" v:prompt="" v:val="VT0(0.98425196850394):24"/>
				<v:ud v:nameU="DefaultHeight" v:prompt="" v:val="VT0(0.59055118110236):24"/>
				<v:ud v:nameU="ResizeTxtHeight" v:prompt="" v:val="VT0(0.59055118110236):24"/>
				<v:ud v:nameU="msvThemeColors" v:val="VT0(36):26"/>
				<v:ud v:nameU="msvThemeEffects" v:val="VT0(16):26"/>
			</v:userDefs>
			<v:textBlock v:margins="rect(2,2,2,2)"/>
			<v:textRect cx="22.5" cy="271.815" width="36" height="36"/>
			<g id="shadow23-108" v:groupContext="shadow" v:shadowOffsetX="1.44" v:shadowOffsetY="-1.44" v:shadowType="1"
					transform="matrix(1,0,0,1,1.44,1.44)" class="st1">
				<path d="M4.5 253.81 L45 253.81 A38.25 38.25 0 0 1 45 289.81 L4.5 289.81 A38.25 38.25 0 0 1 4.5 253.81 Z"
						class="st6"/>
				<path d="M4.5 253.81 L45 253.81 A38.25 38.25 0 0 1 45 289.81 L4.5 289.81 A38.25 38.25 0 0 1 4.5 253.81" class="st7"/>
				<path d="M45 253.81 A38.25 38.25 -180 0 0 45 289.81" class="st7"/>
			</g>
			<path d="M4.5 253.81 L45 253.81 A38.25 38.25 0 0 1 45 289.81 L4.5 289.81 A38.25 38.25 0 0 1 4.5 253.81 Z" class="st8"/>
			<path d="M4.5 253.81 L45 253.81 A38.25 38.25 0 0 1 45 289.81 L4.5 289.81 A38.25 38.25 0 0 1 4.5 253.81" class="st9"/>
			<path d="M45 253.81 A38.25 38.25 -180 0 0 45 289.81" class="st9"/>
			<text x="6.91" y="269.42" class="st4" v:langID="1033"><v:paragraph v:horizAlign="1"/><v:tabList/>Response <tspan
						x="11.63" dy="1.2em" class="st5">Queue</tspan></text>		</g>
		<g id="shape24-118" v:mID="24" v:groupContext="shape" v:layerMember="1" transform="translate(373.688,-217.627)">
			<title>Dynamic connector.24</title>
			<v:userDefs>
				<v:ud v:nameU="msvThemeColors" v:val="VT0(36):26"/>
				<v:ud v:nameU="msvThemeEffects" v:val="VT0(16):26"/>
			</v:userDefs>
			<path d="M9 289.81 L9 271.81 L-9 271.81 L-9 235.81 L2.84 235.81" class="st10"/>
		</g>
		<g id="shape25-124" v:mID="25" v:groupContext="shape" v:layerMember="1" transform="translate(459.188,-271.627)">
			<title>Dynamic connector.25</title>
			<v:userDefs>
				<v:ud v:nameU="msvThemeColors" v:val="VT0(36):26"/>
				<v:ud v:nameU="msvThemeEffects" v:val="VT0(16):26"/>
			</v:userDefs>
			<path d="M-4.5 289.81 L13.5 289.81 L13.5 325.81 L-13.5 325.81 L-13.5 337.65" class="st10"/>
		</g>
		<g id="shape26-130" v:mID="26" v:groupContext="shape" v:layerMember="1" transform="translate(436.688,-181.627)">
			<title>Dynamic connector.26</title>
			<v:userDefs>
				<v:ud v:nameU="msvThemeColors" v:val="VT0(36):26"/>
				<v:ud v:nameU="msvThemeEffects" v:val="VT0(16):26"/>
			</v:userDefs>
			<path d="M9 289.81 L9 315.15" class="st10"/>
		</g>
		<g id="shape27-136" v:mID="27" v:groupContext="shape" v:layerMember="1" transform="translate(373.688,-150.127)">
			<title>Dynamic connector.27</title>
			<v:userDefs>
				<v:ud v:nameU="msvThemeColors" v:val="VT0(36):26"/>
				<v:ud v:nameU="msvThemeEffects" v:val="VT0(16):26"/>
			</v:userDefs>
			<path d="M9 289.81 L9 264.47" class="st10"/>
		</g>
		<g id="shape28-142" v:mID="28" v:groupContext="shape" v:layerMember="0" transform="translate(378.188,-1.6275)">
			<title>Document.22</title>
			<desc>Local disk</desc>
			<v:custProps>
				<v:cp v:nameU="Cost" v:lbl="Cost" v:prompt="" v:type="7" v:format="@" v:sortKey="" v:invis="false" v:ask="false"
						v:langID="1033" v:cal="0"/>
				<v:cp v:nameU="ProcessNumber" v:lbl="Process Number" v:prompt="" v:type="2" v:format="" v:sortKey=""
						v:invis="false" v:ask="false" v:langID="1033" v:cal="0"/>
				<v:cp v:nameU="Owner" v:lbl="Owner" v:prompt="" v:type="0" v:format="" v:sortKey="" v:invis="false" v:ask="false"
						v:langID="1033" v:cal="0"/>
				<v:cp v:nameU="Function" v:lbl="Function" v:prompt="" v:type="0" v:format="" v:sortKey="" v:invis="false"
						v:ask="false" v:langID="1033" v:cal="0" v:val="VT4()"/>
				<v:cp v:nameU="StartDate" v:lbl="Start Date" v:prompt="" v:type="5" v:format="" v:sortKey="" v:invis="false"
						v:ask="false" v:langID="1033" v:cal="0"/>
				<v:cp v:nameU="EndDate" v:lbl="End Date" v:prompt="" v:type="5" v:format="" v:sortKey="" v:invis="false"
						v:ask="false" v:langID="1033" v:cal="0"/>
				<v:cp v:nameU="Status" v:lbl="Status" v:prompt="" v:type="4"
						v:format=";Not Started;In Progress;Completed;Deferred;Waiting on Input" v:sortKey="" v:invis="false"
						v:ask="false" v:langID="1033" v:cal="0" v:val="VT4()"/>
			</v:custProps>
			<v:userDefs>
				<v:ud v:nameU="visVersion" v:prompt="" v:val="VT0(15):26"/>
				<v:ud v:nameU="DefaultWidth" v:prompt="" v:val="VT0(0.98425196850394):24"/>
				<v:ud v:nameU="DefaultHeight" v:prompt="" v:val="VT0(0.59055118110236):24"/>
				<v:ud v:nameU="ResizeTxtHeight" v:prompt="" v:val="VT0(0.59055118110236):24"/>
				<v:ud v:nameU="msvThemeColors" v:val="VT0(36):26"/>
				<v:ud v:nameU="msvThemeEffects" v:val="VT0(16):26"/>
			</v:userDefs>
			<v:textBlock v:margins="rect(2,2,2,2)"/>
			<v:textRect cx="35.4331" cy="263.24" width="70.87" height="31.8898"/>
			<g id="shadow28-143" v:groupContext="shadow" v:shadowOffsetX="1.44" v:shadowOffsetY="-1.44" v:shadowType="1"
					transform="matrix(1,0,0,1,1.44,1.44)" class="st1">
				<path d="M0 284.5 L0 247.3 L70.87 247.3 L70.87 284.5 A32.185 32.185 -180 0 0 35.43 284.5 A32.185 32.185 0 0 1 0 284.5
							 Z" class="st2"/>
			</g>
			<path d="M0 284.5 L0 247.3 L70.87 247.3 L70.87 284.5 A32.185 32.185 -180 0 0 35.43 284.5 A32.185 32.185 0 0 1 0 284.5
						 Z" class="st3"/>
			<text x="19.81" y="265.64" class="st4" v:langID="1033"><v:paragraph v:horizAlign="1"/><v:tabList/>Local disk</text>		</g>
		<g id="shape29-148" v:mID="29" v:groupContext="shape" v:layerMember="1" transform="translate(468.188,-127.627)">
			<title>Dynamic connector.29</title>
			<desc>Write logs, Persist job states</desc>
			<v:userDefs>
				<v:ud v:nameU="msvThemeColors" v:val="VT0(36):26"/>
				<v:ud v:nameU="msvThemeEffects" v:val="VT0(16):26"/>
			</v:userDefs>
			<v:textBlock v:margins="rect(4,4,4,4)"/>
			<v:textRect cx="18" cy="351.752" width="64.88" height="27.2035"/>
			<path d="M0 289.81 L18 289.81 L18 394.56 L-12.97 394.56" class="st10"/>
			<rect v:rectContext="textBkgnd" x="-9.52888" y="342.152" width="55.058" height="19.1997" class="st12"/>
			<text x="0.42" y="349.35" class="st4" v:langID="1033"><v:paragraph v:horizAlign="1"/><v:tabList/>Write logs,<v:newlineChar/><tspan
						x="-9.53" dy="1.2em" class="st5">Persist job states</tspan></text>		</g>
		<g id="shape34-157" v:mID="34" v:groupContext="shape" v:layerMember="1" transform="translate(378.188,-22.8873)">
			<title>Dynamic connector.34</title>
			<desc>Read state from disk @ startup</desc>
			<v:userDefs>
				<v:ud v:nameU="msvThemeColors" v:val="VT0(36):26"/>
				<v:ud v:nameU="msvThemeEffects" v:val="VT0(16):26"/>
			</v:userDefs>
			<v:textBlock v:margins="rect(4,4,4,4)"/>
			<v:textRect cx="-36" cy="230.075" width="44.29" height="36.8035"/>
			<path d="M0 289.81 L-36 289.81 L-36 209.23" class="st10"/>
			<rect v:rectContext="textBkgnd" x="-53.234" y="215.675" width="34.4682" height="28.7996" class="st12"/>
			<text x="-53.23" y="222.88" class="st4" v:langID="1033"><v:paragraph v:horizAlign="1"/><v:tabList/>Read state<v:newlineChar/><tspan
						x="-51.23" dy="1.2em" class="st5">from disk<v:newlineChar/></tspan><tspan x="-52.24" dy="1.2em" class="st5">@ startup</tspan></text>		</g>
	</g>
</svg>
